<svg fill="none" xmlns="http://www.w3.org/2000/svg">
  <symbol viewBox="0 0 18 17" id="mail">
    <path fill-rule="evenodd" clip-rule="evenodd" d="M1.36108 0.0647973C0.727481 0.237234 0.230514 0.747413 0.0633716 1.39694C-0.022055 1.72884 -0.0206681 11.641 0.0648335 11.9733C0.23325 12.6277 0.732841 13.1317 1.38286 13.3031C1.54726 13.3464 1.8324 13.3597 2.60057 13.3597H3.60361L3.61414 14.9884C3.62434 16.5655 3.62711 16.6203 3.70197 16.7218C3.88845 16.9745 4.19005 17.0678 4.43464 16.9486C4.50458 16.9145 5.54012 16.0938 6.73587 15.1248L8.90996 13.363L12.6599 13.3613C16.7366 13.3595 16.6063 13.3659 17.0333 13.1469C17.2976 13.0114 17.6294 12.6819 17.7694 12.4161C18.0121 11.9552 17.9999 12.2584 17.9999 6.68224C17.9999 2.25386 17.9927 1.58607 17.9425 1.39122C17.7741 0.736827 17.2745 0.232795 16.6245 0.0614206C16.3057 -0.0226164 1.67032 -0.0193915 1.36108 0.0647973ZM16.5236 1.31609C16.5805 1.35912 16.6619 1.44145 16.7044 1.49908C16.7815 1.60368 16.7817 1.61233 16.7817 6.67849V11.7531L16.6736 11.8965C16.4748 12.1603 16.7241 12.1456 12.4559 12.1456C10.073 12.1456 8.5599 12.1596 8.50131 12.1821C8.44909 12.2022 7.60483 12.868 6.62518 13.6618C5.64549 14.4555 4.83591 15.1049 4.82612 15.1049C4.8163 15.1049 4.80341 14.5256 4.79749 13.8177C4.78714 12.5858 4.78335 12.5259 4.7094 12.4257C4.66689 12.3681 4.58559 12.2858 4.52869 12.2428C4.42962 12.1679 4.36552 12.1638 3.00619 12.1456C1.64686 12.1274 1.58276 12.1233 1.48369 12.0484C1.42679 12.0054 1.34548 11.923 1.30298 11.8654C1.22595 11.761 1.22565 11.7427 1.21493 6.78381C1.209 4.04656 1.21388 1.75199 1.2258 1.68476C1.25271 1.53269 1.41026 1.33886 1.56117 1.27212C1.65533 1.23046 2.97583 1.22299 9.04779 1.22971L16.42 1.23786L16.5236 1.31609ZM3.96016 4.91428C3.71217 5.02408 3.5692 5.31504 3.62235 5.60175C3.65523 5.77916 3.84242 5.98878 4.01238 6.03852C4.10658 6.0661 5.694 6.07517 9.08527 6.06746C14.0033 6.05627 14.0215 6.05597 14.1246 5.978C14.3213 5.82935 14.3827 5.7081 14.3827 5.46816C14.3827 5.22823 14.3213 5.10698 14.1246 4.95833C14.0214 4.88032 14.006 4.88006 9.04779 4.87186C4.9704 4.86515 4.05391 4.87277 3.96016 4.91428ZM3.96016 7.34225C3.71202 7.45254 3.5692 7.74323 3.62235 8.02991C3.65523 8.2072 3.84231 8.41686 4.01238 8.46686C4.10496 8.4941 4.9731 8.50351 6.68628 8.49581C9.18108 8.48458 9.22483 8.4831 9.3266 8.40616C9.52332 8.25751 9.58468 8.13625 9.58468 7.89632C9.58468 7.65639 9.52332 7.53513 9.3266 7.38648C9.22472 7.30943 9.18382 7.30814 6.6488 7.29983C4.56587 7.29304 4.05267 7.30112 3.96016 7.34225Z"/>
  </symbol>
  <symbol viewBox="0 0 18 18" id="cursor">
    <path d="M15.7054 11.2946L13.5178 9.10198L15.583 7.72521C16.7201 6.97054 17.7042 6.28725 17.7705 6.20567C18.0255 5.90482 17.9949 5.43569 17.6992 5.15014C17.5156 4.97167 17.3065 4.90538 9.22436 2.48329C4.67082 1.11671 0.871955 0 0.790368 0C0.708782 0 0.571105 0.0305949 0.484419 0.0713881C0.198867 0.193768 0 0.504816 0 0.805666C0 0.882153 1.12181 4.68102 2.49348 9.25496C4.94108 17.4034 4.99207 17.5666 5.16544 17.7297C5.45609 18 5.91501 18.0204 6.20567 17.7756C6.28215 17.7094 6.96544 16.7252 7.72521 15.5881L9.10198 13.5229L11.2946 15.7105C13.6708 18.0765 13.5943 18.0153 14.0635 17.9337C14.2317 17.9031 14.4867 17.6686 16.0725 16.0776C17.6584 14.4918 17.898 14.2317 17.9286 14.0686C18.0102 13.5892 18.0714 13.6657 15.7054 11.2946ZM14.9252 14.9252L13.8697 15.9807L11.6108 13.7269C9.63229 11.7535 9.33144 11.468 9.16317 11.4374C8.90821 11.3915 8.65836 11.4425 8.49008 11.5751C8.4136 11.6363 7.8272 12.4725 7.1796 13.4414C6.53711 14.4102 6.0017 15.1904 5.9915 15.1802C5.9813 15.17 5.09915 12.2482 4.03343 8.68895C2.96261 5.12975 2.07535 2.17224 2.06006 2.12125C2.03456 2.04476 2.04986 2.03456 2.12635 2.05496C2.17734 2.07026 5.13484 2.95751 8.69405 4.02833C12.2533 5.09915 15.1802 5.9813 15.1853 5.9864C15.1955 5.9966 14.4102 6.53201 13.4465 7.1745C12.4776 7.817 11.6414 8.4085 11.5802 8.48499C11.4476 8.65326 11.3966 8.90822 11.4425 9.15807C11.4731 9.32635 11.7535 9.6272 13.732 11.6057L15.9858 13.8646L14.9252 14.9252Z"/>
  </symbol>
  <symbol viewBox="0 0 20 20" id="line">
    <path fill-rule="evenodd" clip-rule="evenodd" d="M18.9517 0.0274683C18.8439 0.0592817 16.8368 2.04638 9.49701 9.38827C4.37219 14.5145 0.14038 18.7703 0.0929885 18.8456C-0.0382377 19.0541 -0.0292833 19.4425 0.111679 19.6556C0.273209 19.8999 0.46434 20 0.769257 20C0.963828 20 1.05548 19.9798 1.16028 19.9137C1.23555 19.8663 5.48808 15.6314 10.6104 10.5028C19.2354 1.86713 19.927 1.16508 19.9695 1.00237C20.1012 0.499073 19.7931 0.0406163 19.2981 0.00301154C19.1828 -0.00575376 19.0269 0.00528113 18.9517 0.0274683Z"/>
  </symbol>
  <symbol viewBox="0 0 20 20" id="circleline">
    <path d="M19 1C18.9762 1 18.9642 1 18.9404 1C9.03444 1 1 9.03444 1 18.9404C1 18.9642 1 18.9762 1 19"  stroke-width="1.5" stroke-miterlimit="10" stroke-linecap="round" stroke-linejoin="round"/>
  </symbol>
  <symbol viewBox="0 0 22 22" id="pencil">
    <path fill-rule="evenodd" clip-rule="evenodd" d="M20.2784 1.53045C19.6089 0.86088 18.8436 0.573924 17.8871 0.478271C17.6002 0.478271 17.3132 0.478271 17.1219 0.478271C16.548 0.573924 15.9741 0.86088 15.5915 1.24349C15.4958 1.33914 12.4349 4.40001 8.80015 8.03479L2.20015 14.6348L1.24363 17.6C0.669718 19.2261 0.287109 20.6609 0.287109 20.6609C0.287109 21.1391 0.669718 21.5218 1.14798 21.5218C1.24363 21.5218 2.58276 21.0435 4.20885 20.5652L7.17407 19.6087L13.7741 13.0087C17.4088 9.37392 20.4697 6.31305 20.5654 6.12175C21.6175 4.68697 21.5219 2.67827 20.2784 1.53045ZM12.2436 12.1478L6.40885 17.9826L2.39146 19.4174C2.39146 19.4174 3.73059 15.5913 3.82624 15.4L9.56537 9.66088C12.6262 6.60001 15.0175 4.20871 15.1132 4.20871C15.1132 4.20871 15.6871 4.78262 16.4523 5.54784L17.7915 6.88697L12.2436 12.1478ZM19.1306 5.26088L18.9393 5.45218L17.6002 4.11305L16.261 2.86958L16.548 2.67827C17.0262 2.20001 17.6002 2.10436 18.1741 2.20001C18.6523 2.29566 19.1306 2.67827 19.4175 3.15653C19.8002 3.8261 19.7045 4.68697 19.1306 5.26088Z"/>
  </symbol>
  <symbol viewBox="0 0 25 16" id="rectangle">
    <path d="M24.0517 1.03531H0.948242V15.153H24.0517V1.03531Z"  stroke-width="1.5" stroke-miterlimit="10"/>
  </symbol>
  <symbol viewBox="0 0 22 22" id="circle">
    <path d="M10.9999 21.208C16.589 21.208 21.1199 16.6771 21.1199 11.088C21.1199 5.49887 16.589 0.967987 10.9999 0.967987C5.41076 0.967987 0.879883 5.49887 0.879883 11.088C0.879883 16.6771 5.41076 21.208 10.9999 21.208Z"  stroke-width="1.5" stroke-miterlimit="10"/>
  </symbol>
  <symbol viewBox="0 0 24 24" id="pointer">
    <path fill-rule="evenodd" clip-rule="evenodd" d="M10.3506 1.62759C9.4565 2.52279 8.72501 3.27657 8.72501 3.30266C8.72501 3.3633 9.6238 4.26155 9.68444 4.26155C9.70942 4.26155 10.0828 3.90878 10.514 3.47766L11.2982 2.69377V6.98993V11.2861H7.00615H2.71408L3.49723 10.5012C3.92793 10.0695 4.28037 9.69504 4.28037 9.66909C4.28037 9.60817 3.3812 8.71043 3.32019 8.71043C3.29478 8.71043 2.53732 9.44801 1.63698 10.3495L0 11.9885L1.63698 13.6276C2.53732 14.5291 3.29553 15.2667 3.32187 15.2667C3.38279 15.2667 4.28037 14.3673 4.28037 14.3063C4.28037 14.2813 3.92793 13.9076 3.49723 13.4759L2.71408 12.691H7.00615H11.2982V16.9872V21.2833L10.514 20.4994C10.0828 20.0683 9.70867 19.7155 9.68275 19.7155C9.62189 19.7155 8.72501 20.6156 8.72501 20.6766C8.72501 20.7021 9.46188 21.4603 10.3625 22.3615L12 24L13.6375 22.3615C14.5381 21.4603 15.275 20.7013 15.275 20.675C15.275 20.614 14.3765 19.7155 14.3156 19.7155C14.2906 19.7155 13.9172 20.0683 13.486 20.4994L12.7018 21.2833V16.9872V12.691H16.9939H21.2859L20.5028 13.4759C20.0721 13.9076 19.7196 14.2821 19.7196 14.308C19.7196 14.3689 20.6188 15.2667 20.6798 15.2667C20.7052 15.2667 21.4627 14.5291 22.363 13.6276L24 11.9885L22.363 10.3495C21.4627 9.44801 20.7045 8.71043 20.6781 8.71043C20.6172 8.71043 19.7196 9.60976 19.7196 9.67078C19.7196 9.69579 20.0721 10.0695 20.5028 10.5012L21.2859 11.2861H16.9939H12.7018V6.98993V2.69377L13.486 3.47766C13.9172 3.90878 14.2913 4.26155 14.3172 4.26155C14.3781 4.26155 15.275 3.36152 15.275 3.30046C15.275 3.2548 12.0448 0 11.9995 0C11.9866 0 11.2446 0.732426 10.3506 1.62759Z"/>
  </symbol>
  <symbol viewBox="0 0 20 23" id="back">
    <path fill-rule="evenodd" clip-rule="evenodd" d="M4.59367 0.0565126C4.37304 0.160901 4.15757 0.410526 4.08548 0.645263C3.98508 0.972155 2.65234 6.03213 2.62512 6.18987C2.58715 6.40978 2.69819 6.69111 2.9028 6.89314C3.03672 7.02537 3.18938 7.09921 3.4858 7.17503C3.87963 7.27582 7.43186 8.24372 8.17828 8.4536C8.38685 8.51222 8.668 8.56009 8.80306 8.55998C9.22563 8.55965 9.56078 8.25755 9.64478 7.80142C9.6903 7.55418 9.49678 7.13933 9.26219 6.98126C9.17021 6.91927 8.2934 6.65121 7.30636 6.38332C6.32236 6.11626 5.48064 5.88495 5.43593 5.8694C5.24067 5.80138 6.5752 5.09423 7.44593 4.80437C8.29916 4.52032 8.65844 4.46026 9.70057 4.42728C10.5357 4.40087 10.7744 4.41305 11.3353 4.51069C14.4105 5.04603 16.9343 7.25712 17.8705 10.236C18.1479 11.1187 18.2264 11.678 18.2258 12.7667C18.2254 13.5391 18.2012 13.8588 18.1064 14.3444C17.4214 17.8536 14.96 20.3862 11.5601 21.08C10.7663 21.242 9.32266 21.2546 8.5325 21.1062C5.51791 20.5404 3.06442 18.3406 2.1328 15.3682C1.88919 14.5911 1.78927 13.9939 1.7563 13.1177C1.72288 12.2311 1.7927 11.5192 1.99132 10.7201C2.14937 10.0842 2.15138 9.99873 2.0143 9.72497C1.85126 9.39941 1.61254 9.25207 1.24821 9.25207C0.997976 9.25207 0.909421 9.27985 0.739915 9.41159C0.502118 9.5964 0.422092 9.76831 0.269645 10.4223C-0.416201 13.3642 0.220804 16.472 2.01506 18.9382C3.32265 20.7354 5.2285 22.061 7.33727 22.6401C12.7731 24.1328 18.3271 20.8446 19.6973 15.3223C20.3716 12.6051 19.906 9.6528 18.4345 7.31485C16.8993 4.87555 14.2725 3.16537 11.3784 2.72091C10.7584 2.62571 9.41763 2.61221 8.74841 2.6944C7.71589 2.82121 6.49572 3.20616 5.46907 3.72905C5.20351 3.86432 4.99858 3.94186 5.01374 3.9014C5.14853 3.54091 5.76174 1.03996 5.76174 0.850663C5.76174 0.582496 5.61815 0.316433 5.37405 0.132286C5.19063 -0.00608739 4.80506 -0.0435588 4.59367 0.0565126Z"/>
  </symbol>
  <symbol viewBox="0 0 24 24" id="pouring">
    <path fill-rule="evenodd" clip-rule="evenodd" d="M18.2856 2.18667L16.1046 4.37333L14.764 3.06048L13.4234 1.74762L7.59928 7.58721L1.77516 13.4268L6.80577 18.463C10.0322 21.693 11.9139 23.5433 12.0526 23.622C12.4902 23.8707 12.9669 23.9967 13.478 23.9987C14.0179 24.0008 14.3377 23.9226 14.8382 23.666C15.1397 23.5114 15.5001 23.164 19.2376 19.4259C21.8638 16.7993 23.3831 15.2455 23.5185 15.0476C24.0297 14.3007 24.1449 13.2794 23.811 12.4555C23.5876 11.9043 23.4088 11.7064 20.4192 8.70001L17.4496 5.71379L19.6249 3.50352L21.8002 1.29324L21.1576 0.646622C20.8041 0.291004 20.504 0 20.4907 0C20.4774 0 19.4851 0.983995 18.2856 2.18667ZM14.1234 5.06754L14.7675 5.71459L12.3521 8.13592C11.0237 9.46763 9.93682 10.5782 9.93682 10.6038C9.93682 10.6655 11.1647 11.8979 11.2262 11.8979C11.2524 11.8979 12.3608 10.808 13.6891 9.47596L16.1043 7.05402L19.029 9.9815C21.0101 11.9645 21.9821 12.9696 22.0417 13.097C22.1491 13.3266 22.1556 13.5831 22.0598 13.8157C22.0092 13.9387 20.8021 15.1802 17.9909 18.0007C14.2537 21.7503 13.9789 22.0154 13.7616 22.0807C13.5127 22.1554 13.2912 22.1366 13.0559 22.021C12.9026 21.9457 4.44909 13.5046 4.44909 13.4269C4.44909 13.3646 13.3696 4.42055 13.4317 4.42055C13.4579 4.42055 13.7691 4.71169 14.1234 5.06754ZM2.18543 17.2237C0.873627 18.857 0.181236 20.0455 0.0315193 20.9208C-0.179125 22.1525 0.688499 23.4895 1.9625 23.8963C2.36699 24.0255 3.08851 24.0355 3.48555 23.9175C4.49876 23.6163 5.25138 22.8122 5.46615 21.8015C5.65864 20.8955 5.33749 19.9953 4.28029 18.4772C3.82903 17.8293 2.82224 16.5535 2.76216 16.5535C2.74096 16.5535 2.48144 16.8551 2.18543 17.2237ZM3.07036 20.0453C3.39095 20.5645 3.59943 20.9984 3.6355 21.2213C3.67091 21.4399 3.52087 21.7726 3.31726 21.9271C2.84339 22.2867 2.18707 22.1273 1.95255 21.5957C1.842 21.3451 1.8587 21.1792 2.03294 20.7976C2.18688 20.4605 2.70887 19.6103 2.76197 19.6103C2.78387 19.6103 2.92266 19.8061 3.07036 20.0453Z"/>
  </symbol>
  <symbol viewBox="0 0 23 22" id="settings">
    <path fill-rule="evenodd" clip-rule="evenodd" d="M15.5023 21.9285C14.8086 21.7523 14.1127 21.2958 13.6717 20.7278C13.4789 20.4794 13.116 19.7984 13.116 19.6848C13.116 19.6445 11.6483 19.6319 6.94887 19.6315L0.781712 19.631L0.557043 19.5255C0.292833 19.4014 0.211997 19.3188 0.0886992 19.0469C-0.0753988 18.6851 0.00179734 18.2867 0.292249 17.9965C0.58652 17.7025 0.109369 17.7231 6.9206 17.7099L13.1044 17.6979L13.1827 17.4852C13.5633 16.4505 14.5464 15.6122 15.6417 15.3883C17.1783 15.0741 18.7834 15.9438 19.3722 17.4097L19.4795 17.6769L20.8698 17.6997C22.3729 17.7244 22.4324 17.7337 22.7002 17.9854C22.8666 18.1417 22.9993 18.443 23 18.6657C23.0006 18.8641 22.8376 19.2522 22.7037 19.3711C22.6565 19.4129 22.5273 19.4884 22.4165 19.5386C22.2284 19.6239 22.1253 19.6301 20.8549 19.631L19.4947 19.6319L19.4454 19.7555C19.2912 20.142 19.0545 20.5591 18.8457 20.8122C18.4477 21.2948 17.8237 21.7079 17.1981 21.903C16.8215 22.0204 15.9174 22.034 15.5023 21.9285ZM16.8701 19.9707C17.4751 19.7021 17.8094 19.0705 17.6909 18.4199C17.6328 18.1007 17.5252 17.8955 17.296 17.6662C16.9932 17.3633 16.7588 17.2723 16.2838 17.2732C15.9485 17.2739 15.8449 17.292 15.6772 17.3791C15.4018 17.5223 15.1539 17.7671 15.0115 18.0365C14.9087 18.2308 14.8925 18.3159 14.8918 18.6657C14.8908 19.1406 14.9817 19.3751 15.2842 19.6777C15.513 19.9065 15.6732 19.9937 15.9918 20.0627C16.3004 20.1296 16.5776 20.1006 16.8701 19.9707ZM6.28609 14.3309C5.18661 14.1744 4.22247 13.4816 3.75116 12.5092C3.64318 12.2864 3.54316 12.0687 3.52891 12.0254C3.50501 11.9528 3.39685 11.9467 2.11988 11.9458C0.567603 11.9447 0.51157 11.935 0.233341 11.618C-0.0777803 11.2636 -0.0777803 10.7424 0.233341 10.388C0.51157 10.071 0.567603 10.0613 2.11988 10.0602C3.39685 10.0593 3.50501 10.0532 3.52891 9.98055C3.54316 9.93732 3.64318 9.71957 3.75116 9.49675C4.165 8.64293 4.96634 7.99747 5.92923 7.74233C6.27904 7.64961 7.004 7.6382 7.38697 7.71936C8.44403 7.9434 9.34976 8.7125 9.79416 9.76343L9.90973 10.0367L16.1298 10.0592C23.0603 10.0842 22.4708 10.0546 22.7676 10.3928C23.0727 10.7403 23.0727 11.2657 22.7676 11.6132C22.4708 11.9514 23.0603 11.9218 16.1298 11.9468L9.90973 11.9693L9.79416 12.2426C9.43626 13.0888 8.81856 13.7238 7.9991 14.0875C7.52294 14.2989 6.79155 14.4028 6.28609 14.3309ZM7.07917 12.3785C7.35336 12.3054 7.67549 12.0942 7.83828 11.8808C8.22045 11.3797 8.21932 10.6249 7.83568 10.1218C7.67104 9.9059 7.29984 9.67485 7.01132 9.6087C5.85046 9.34259 4.89023 10.5898 5.43694 11.6536C5.75143 12.2655 6.41074 12.5565 7.07917 12.3785ZM15.6098 6.61432C14.539 6.38664 13.5578 5.54028 13.1827 4.52081L13.1044 4.30809L6.9206 4.29609C0.109369 4.28288 0.58652 4.30351 0.292249 4.0095C0.00179734 3.7193 -0.0753988 3.32093 0.0886992 2.9591C0.211997 2.6872 0.292833 2.6046 0.557043 2.48046L0.781712 2.37494L6.94887 2.37449C11.6483 2.37413 13.116 2.36146 13.116 2.32114C13.116 2.20762 13.4789 1.52656 13.6717 1.27821C14.1308 0.686768 14.8813 0.212669 15.6052 0.0566292C16.0323 -0.0354576 16.8235 -0.012043 17.1981 0.103683C17.8206 0.296038 18.4473 0.71063 18.8457 1.19381C19.0545 1.44692 19.2912 1.86403 19.4454 2.25045L19.4947 2.37404L20.8549 2.37449C22.1882 2.3749 22.2195 2.37701 22.4398 2.48046C22.704 2.6046 22.7848 2.6872 22.9081 2.9591C23.1242 3.43563 22.9089 3.98482 22.4173 4.21111C22.2873 4.27088 22.0183 4.28742 20.8698 4.30625L19.4795 4.32904L19.3722 4.59631C18.7806 6.06912 17.1526 6.94231 15.6098 6.61432ZM16.8992 4.62889C17.1476 4.50737 17.4483 4.21956 17.564 3.99287C17.7576 3.61333 17.7591 3.07029 17.5677 2.69497C17.2094 1.99261 16.3291 1.7039 15.6314 2.05989C15.4053 2.1753 15.1173 2.47602 14.9948 2.72482C14.8447 3.02975 14.8461 3.65549 14.9975 3.94703C15.1859 4.30953 15.5171 4.59114 15.9019 4.71617C16.1215 4.7875 16.6739 4.73914 16.8992 4.62889Z"/>
  </symbol>
  <symbol viewBox="0 0 20 20" id="close">
    <path fill-rule="evenodd" clip-rule="evenodd" d="M0.628552 0.0611157C0.283837 0.182908 0 0.593859 0 0.971157C0 1.04949 0.0285244 1.20024 0.0633788 1.3062C0.121522 1.48291 0.477451 1.85005 4.37103 5.74951L8.61526 10.0002L4.38967 14.2312C2.06555 16.5583 0.134455 18.5213 0.0982723 18.5936C-0.0785397 18.947 0.00394653 19.4258 0.291144 19.7131C0.563727 19.9857 0.930441 20.0682 1.31181 19.9427C1.48846 19.8845 1.85549 19.5285 5.75372 15.6339L10.0031 11.3884L14.2524 15.6339C18.1506 19.5285 18.5177 19.8845 18.6943 19.9427C19.0752 20.0681 19.4424 19.9857 19.7141 19.7139C19.9857 19.4422 20.0681 19.0748 19.9428 18.6939C19.8846 18.5172 19.5287 18.15 15.6352 14.2506L11.391 10L15.6352 5.74943C19.5287 1.85005 19.8846 1.48291 19.9428 1.3062C20.0681 0.92523 19.9857 0.557861 19.7141 0.286134C19.4424 0.0144078 19.0752 -0.0679856 18.6943 0.0574025C18.5177 0.115563 18.1506 0.471598 14.2524 4.36621L10.0031 8.61166L5.75372 4.36621C1.85549 0.471598 1.48846 0.115563 1.31181 0.0574025C1.07568 -0.0203397 0.855731 -0.019128 0.628552 0.0611157Z"/>
  </symbol>
  <symbol viewBox="0 0 16 26" id="formwork">
    <g clip-path="url(#clip0_201_152)">
    <path d="M11.247 25.224H4.85742V0.925079H11.247V25.224ZM5.49637 24.7307H10.6879V1.41846H5.49637V24.7307Z" />
    <path d="M11.6462 25.5324H4.45801V0.61673H11.6462V25.5324ZM5.89564 24.4223H10.2884V1.72684H5.89564V24.4223Z" />
    <path d="M4.02507 24.7306H1.3418V25.224H4.02507V24.7306Z" />
    <path d="M4.45802 24.4223H0.90918V25.5324H4.45802V24.4223Z" />
    <path d="M4.02507 0.925079H1.3418V1.41846H4.02507V0.925079Z" />
    <path d="M4.45802 0.61673H0.90918V1.72684H4.45802V0.61673Z" />
    <path d="M1.71474 1.1718H1.21875V24.9774H1.71474V1.1718Z" />
    <path d="M2.02517 0.863434H0.90918V25.2857H2.02517V0.863434Z" />
    <path d="M14.8156 24.7306H12.0859V25.224H14.8156V24.7306Z" />
    <path d="M15.2566 24.4223H11.6465V25.5324H15.2566V24.4223Z" />
    <path d="M14.8156 0.925079H12.0859V1.41846H14.8156V0.925079Z" />
    <path d="M15.2566 0.61673H11.6465V1.72684H15.2566V0.61673Z" />
    <path d="M14.9472 1.1718H14.4512V24.9774H14.9472V1.1718Z" />
    <path d="M15.2566 0.863434H14.1406V25.2857H15.2566V0.863434Z" />
    </g>
    <defs>
    <clipPath id="clip0_201_152">
    <rect width="16" height="26" />
    </clipPath>
    </defs>
  </symbol>
  <symbol viewBox="0 0 24 25" id="net">
    <path fill-rule="evenodd" clip-rule="evenodd" d="M2.33679 0.822142C2.10076 0.968474 2.0845 1.03656 2.06804 1.9463L2.05261 2.79719L1.20063 2.81259C0.283897 2.82912 0.216614 2.8456 0.072718 3.08887C-0.0228844 3.25051 -0.0236346 3.42499 0.0703737 3.60658C0.192045 3.84151 0.36548 3.88155 1.2614 3.88155H2.05997V6.48041V9.07928H1.23711C0.327267 9.07928 0.196593 9.11051 0.0680762 9.35869C-0.0370911 9.56182 -0.0201649 9.75414 0.117167 9.91719C0.28596 10.1175 0.478712 10.1557 1.3215 10.156L2.05997 10.1563V12.7317V15.3072L1.3215 15.3075C0.478712 15.3078 0.28596 15.346 0.117167 15.5463C-0.0201649 15.7093 -0.0370911 15.9017 0.0680762 16.1048C0.196593 16.353 0.327267 16.3842 1.23711 16.3842H2.05997V18.9831V21.5819H1.2614C0.36548 21.5819 0.192045 21.622 0.0703737 21.8569C-0.0236346 22.0385 -0.0228844 22.213 0.072718 22.3746C0.216614 22.6179 0.283897 22.6344 1.20063 22.6509L2.05261 22.6663L2.06804 23.5172C2.08459 24.4327 2.10109 24.4999 2.34467 24.6436C2.50652 24.7391 2.68122 24.7399 2.86305 24.646C3.09828 24.5245 3.13837 24.3512 3.13837 23.4565V22.6589H5.7406H8.34282V23.4807C8.34282 24.3894 8.37409 24.5199 8.62259 24.6483C8.82599 24.7533 9.01855 24.7364 9.18182 24.5992C9.3824 24.4307 9.42066 24.2382 9.42094 23.3965L9.42122 22.6589H12H14.5788L14.5791 23.3965C14.5793 24.2382 14.6176 24.4307 14.8182 24.5992C14.9814 24.7364 15.174 24.7533 15.3774 24.6483C15.6259 24.5199 15.6572 24.3894 15.6572 23.4807V22.6589H18.2594H20.8616V23.4565C20.8616 24.3512 20.9017 24.5245 21.1369 24.646C21.3188 24.7399 21.4935 24.7391 21.6553 24.6436C21.8989 24.4999 21.9154 24.4327 21.932 23.5172L21.9474 22.6663L22.7994 22.6509C23.7161 22.6344 23.7834 22.6179 23.9273 22.3746C24.0229 22.213 24.0236 22.0385 23.9296 21.8569C23.808 21.622 23.6345 21.5819 22.7386 21.5819H21.94V18.9831V16.3842H22.7629C23.6727 16.3842 23.8034 16.353 23.9319 16.1048C24.0371 15.9017 24.0202 15.7093 23.8828 15.5463C23.714 15.346 23.5213 15.3078 22.6785 15.3075L21.94 15.3072V12.7317V10.1563L22.6785 10.156C23.5213 10.1557 23.714 10.1175 23.8828 9.91719C24.0202 9.75414 24.0371 9.56182 23.9319 9.35869C23.8034 9.11051 23.6727 9.07928 22.7629 9.07928H21.94V6.48041V3.88155H22.7386C23.6345 3.88155 23.808 3.84151 23.9296 3.60658C24.0236 3.42499 24.0229 3.25051 23.9273 3.08887C23.7834 2.8456 23.7161 2.82912 22.7994 2.81259L21.9474 2.79719L21.932 1.9463C21.9154 1.03075 21.8989 0.963557 21.6553 0.819847C21.4935 0.724368 21.3188 0.723619 21.1369 0.817506C20.9017 0.93902 20.8616 1.11223 20.8616 2.00699V2.80454H18.2594H15.6572V1.98273C15.6572 1.07407 15.6259 0.943562 15.3774 0.815211C15.174 0.71018 14.9814 0.727084 14.8182 0.864239C14.6176 1.03281 14.5793 1.22532 14.5791 2.06702L14.5788 2.80454H12H9.42122L9.42094 2.06702C9.42066 1.22532 9.3824 1.03281 9.18182 0.864239C9.01855 0.727084 8.82599 0.71018 8.62259 0.815211C8.37409 0.943562 8.34282 1.07407 8.34282 1.98273V2.80454H5.7406H3.13837V2.00699C3.13837 1.42363 3.12046 1.16664 3.07175 1.05014C2.95697 0.775877 2.59336 0.663072 2.33679 0.822142ZM8.34282 6.48041V9.07928H5.7406H3.13837V6.48041V3.88155H5.7406H8.34282V6.48041ZM14.5788 6.48041V9.07928H12H9.42122V6.48041V3.88155H12H14.5788V6.48041ZM20.8616 6.48041V9.07928H18.2594H15.6572V6.48041V3.88155H18.2594H20.8616V6.48041ZM8.34282 12.7317V15.3072H5.7406H3.13837V12.7317V10.1563H5.7406H8.34282V12.7317ZM14.5788 12.7317V15.3072H12H9.42122V12.7317V10.1563H12H14.5788V12.7317ZM20.8616 12.7317V15.3072H18.2594H15.6572V12.7317V10.1563H18.2594H20.8616V12.7317ZM8.34282 18.9831V21.5819H5.7406H3.13837V18.9831V16.3842H5.7406H8.34282V18.9831ZM14.5788 18.9831V21.5819H12H9.42122V18.9831V16.3842H12H14.5788V18.9831ZM20.8616 18.9831V21.5819H18.2594H15.6572V18.9831V16.3842H18.2594H20.8616V18.9831Z"/>
  </symbol>
  <symbol viewBox="0 0 24 24" id="triangle">
    <path d="M1.0201 7.83026L0.224609 8.62575L15.0207 23.4218L15.8162 22.6263L1.0201 7.83026Z"/>
    <path d="M23.143 23.625H0.0429688V0.524994H1.16797V22.5H23.143V23.625Z"/>
  </symbol>
  <symbol viewBox="0 0 24 24" id="triangle2">
    <path fill-rule="evenodd" clip-rule="evenodd" d="M23.9437 22.7228C23.9437 22.5754 23.8237 22.4561 23.6755 22.4561H16.8284H7.86372C7.71549 22.4561 7.59549 22.3368 7.59549 22.1895V19.8246C7.59549 16.9263 7.58137 16.807 7.17901 16.6035C6.99548 16.5123 6.57901 16.4912 4.24254 16.4912H1.79313C1.6449 16.4912 1.5249 16.3719 1.5249 16.2246V7.28421V0.280705C1.5249 0.133337 1.4049 0.0140381 1.25666 0.0140381H0.310779C0.162544 0.0140381 0.0425437 0.133337 0.0425437 0.280705V10.7298C0.0425437 24.7579 0.00724954 23.6983 0.501367 23.9018C0.706073 23.986 2.61902 24 13.3978 24H23.6755C23.8237 24 23.9437 23.8807 23.9437 23.7333V22.7228ZM6.04254 20.2105V22.1895C6.04254 22.3368 5.92254 22.4561 5.77431 22.4561H3.78372H1.79313C1.6449 22.4561 1.5249 22.3368 1.5249 22.1895V20.2597C1.5249 19.0526 1.54607 18.0421 1.57431 18.014C1.60254 17.986 2.61901 17.9649 3.83313 17.9649H5.77431C5.92254 17.9649 6.04254 18.0842 6.04254 18.2316V20.2105Z"/>
  </symbol>
  <symbol viewBox="0 0 23 23" id="square">
    <path d="M22.1733 22.7517H1.56638C1.23535 22.7517 0.904297 22.5034 0.904297 22.0896V3.71723C0.904297 3.3862 1.15259 3.05516 1.56638 3.05516C2.31121 3.05516 2.80776 2.47585 2.80776 1.81378C2.80776 1.73102 2.80776 1.64827 2.80776 1.56551C2.80776 1.4 2.80774 1.23447 2.97326 1.06896C3.13878 0.90344 3.3043 0.820679 3.46982 0.820679H22.1733C22.5043 0.820679 22.8353 1.06896 22.8353 1.48275V22.0896C22.8353 22.4207 22.5043 22.7517 22.1733 22.7517ZM2.14568 21.5103H21.5112V2.14482H3.96638C3.88362 3.22068 3.05604 4.04826 2.06294 4.29654V21.5103H2.14568Z"/>
  </symbol>
  <symbol viewBox="0 0 29 22" id="markup">
    <path d="M5.34961 16.3587H23.6222" stroke-miterlimit="10"/>
    <path d="M6.16067 18.4618L1.76172 16.3586L6.16067 14.1317V18.4618Z"/>
    <path d="M22.8086 18.4619L27.2075 16.3586L22.8086 14.1317V18.4619Z"/>
    <path d="M1.07422 10.8528V21.7407" stroke-miterlimit="10"/>
    <path d="M27.8926 10.8528V21.7407" stroke-miterlimit="10"/>
    <path fill-rule="evenodd" clip-rule="evenodd" d="M23.8855 0.950358C23.4248 0.489695 22.9642 0.336146 22.3499 0.259369C22.1964 0.259369 21.9661 0.259369 21.8893 0.259369C21.5054 0.336146 21.1215 0.489693 20.8912 0.720024C20.8144 0.796802 18.8182 2.79301 16.4381 5.1731L12.1386 9.47262L11.5244 11.392C11.1405 12.4669 10.9102 13.3883 10.9102 13.3883C10.9102 13.6954 11.1405 13.9257 11.4476 13.9257C11.5244 13.9257 12.3689 13.6186 13.4438 13.3115L15.3632 12.6972L19.6627 8.39775C22.0428 6.01766 24.039 4.02144 24.1158 3.94466C24.8068 3.02333 24.73 1.71813 23.8855 0.950358ZM18.6646 7.8603L14.9026 11.6224L12.2921 12.5437C12.2921 12.5437 13.1367 10.0868 13.2135 9.93329L16.9755 6.17119C18.9717 4.17499 20.5073 2.63945 20.5841 2.63945C20.5841 2.63945 20.9679 3.02334 21.4286 3.484L22.2732 4.32855L18.6646 7.8603ZM23.1945 3.40722L23.0409 3.56077L22.1964 2.71623L21.3518 1.87168L21.5054 1.71813C21.8125 1.41102 22.1964 1.33425 22.5803 1.41103C22.8874 1.4878 23.1945 1.71812 23.4248 2.02523C23.5784 2.40912 23.5016 3.02334 23.1945 3.40722Z"/>
  </symbol>
  <symbol viewBox="0 0 21 21" id="save">
    <path fill-rule="evenodd" clip-rule="evenodd" d="M1.58791 0.0664749C0.84872 0.265343 0.268927 0.85372 0.0739282 1.60281C-0.0246427 1.98147 -0.0246427 19.0157 0.0739282 19.3943C0.271464 20.1531 0.852437 20.7363 1.60672 20.9329C1.83334 20.9919 2.8867 20.9998 10.5042 20.9998C19.9274 20.9998 19.3588 21.0147 19.8721 20.7545C20.1804 20.5982 20.5676 20.2182 20.7309 19.9116C21.0165 19.3755 20.9998 19.868 20.9998 11.9538C20.9998 5.88549 20.9902 4.74186 20.9385 4.62302C20.8594 4.44117 16.5147 0.104148 16.3505 0.0430658C16.2665 0.0118683 13.9374 -0.00178332 9.02547 0.000185665C2.88062 0.00263596 1.78895 0.0123496 1.58791 0.0664749ZM6.31512 3.68368C6.3278 5.95651 6.32846 5.97108 6.42659 6.16815C6.58184 6.47991 6.75834 6.66412 7.05711 6.82623L7.33371 6.97627H10.5042H13.6748L13.8981 6.85835C14.229 6.68372 14.3652 6.55184 14.5312 6.2456L14.6806 5.9699L14.6934 3.68368L14.7062 1.39747H15.2621H15.818L17.7096 3.29045L19.6012 5.18348L19.5899 12.1696C19.5785 19.1485 19.5785 19.1558 19.4884 19.2765C19.2721 19.5664 19.2349 19.5765 18.3291 19.5914L17.5013 19.605V17.03C17.5013 14.8886 17.4903 14.4127 17.436 14.2043C17.2385 13.4456 16.6575 12.8624 15.9033 12.6658C15.5209 12.5662 5.4938 12.5646 5.11184 12.6641C4.3535 12.8618 3.77064 13.443 3.57416 14.1977C3.5177 14.4146 3.5072 14.8589 3.5072 17.03V19.605L2.67937 19.5914C1.77364 19.5765 1.73643 19.5664 1.52013 19.2765L1.42996 19.1557L1.41749 10.6157C1.41063 5.9187 1.41631 2.01227 1.43013 1.93474C1.46149 1.75932 1.64533 1.53573 1.82135 1.45903C1.92618 1.41335 2.42026 1.40053 4.12854 1.39917L6.30235 1.39747L6.31512 3.68368ZM13.3031 3.49772V5.59798H10.5042H7.70543V3.49772V1.39747H10.5042H13.3031V3.49772ZM15.7789 14.1111C15.8454 14.1607 15.9403 14.2557 15.9898 14.3221C16.0782 14.4405 16.0803 14.4949 16.092 17.0213L16.1039 19.5997H10.5053H4.90661V17.0866C4.90661 15.4127 4.92218 14.5324 4.95327 14.4503C5.01529 14.2866 5.16109 14.1324 5.32206 14.0605C5.42969 14.0124 6.36987 14.0035 10.5557 14.0114C15.6336 14.0208 15.6588 14.0213 15.7789 14.1111Z"/>
  </symbol>
  <symbol viewBox="0 0 24 24" id="printer">
    <path fill-rule="evenodd" clip-rule="evenodd" d="M4.16999 0.0553443C3.69097 0.205663 3.34427 0.510431 3.12803 0.971199L3.00587 1.23156L2.99263 3.79819L2.97933 6.36478L2.09899 6.38018L1.21865 6.39553L0.907914 6.54858C0.54627 6.72669 0.297769 6.98136 0.123757 7.35228L0 7.61611V12.3811V17.146L0.123757 17.4098C0.297816 17.7809 0.54627 18.0355 0.908055 18.2135L1.21897 18.3666L3.41396 18.38L5.609 18.3936L5.62253 20.5865L5.63601 22.7794L5.75976 23.0433C5.93387 23.4144 6.18223 23.6689 6.5442 23.847L6.85517 24H12H17.1448L17.4558 23.847C17.8178 23.6689 18.0661 23.4144 18.2402 23.0433L18.364 22.7794L18.3775 20.5865L18.391 18.3936L20.586 18.38L22.781 18.3666L23.0919 18.2135C23.4537 18.0355 23.7022 17.7809 23.8762 17.4098L24 17.146V12.3801V7.61414L23.8469 7.30331C23.6687 6.94151 23.4141 6.69326 23.0428 6.51923C22.7921 6.40173 22.7349 6.39478 21.8997 6.38018L21.0207 6.36478L21.0074 3.79711L20.9941 1.22944L20.841 0.918667C20.6629 0.557001 20.4082 0.308661 20.0369 0.134682L19.773 0.0109811L12.0704 0.00210841C5.79353 -0.00512115 4.33127 0.00473735 4.16999 0.0553443ZM19.4912 3.93091V6.34859H12H4.50881L4.49659 3.97785C4.48988 2.67395 4.49453 1.58064 4.50693 1.5483C4.52487 1.50145 6.05039 1.49187 12.0103 1.50135L19.4912 1.51323V3.93091ZM22.4971 12.3811V16.8643L20.4451 16.8765L18.3931 16.8888L18.3786 15.6313L18.364 14.3738L18.2109 14.0632C18.0327 13.7017 17.7779 13.4533 17.4068 13.2793L17.1429 13.1556H12H6.85714L6.59319 13.2793C6.22206 13.4533 5.96731 13.7017 5.78912 14.0632L5.63601 14.3738L5.62145 15.6313L5.60693 16.8888L3.55491 16.8765L1.50294 16.8643L1.49082 12.428C1.48415 9.98802 1.4888 7.96524 1.50115 7.9329C1.519 7.886 3.6456 7.87652 12.0103 7.88595L22.4971 7.89778V12.3811ZM16.8611 18.5778V22.4978H12H7.13894L7.12683 18.6248C7.12016 16.4946 7.12481 14.7253 7.13716 14.6929C7.15505 14.6461 8.1546 14.6364 12.0103 14.6459L16.8611 14.6579V18.5778ZM9.43796 16.2021C9.12695 16.3389 8.94815 16.6984 9.0147 17.0531C9.05584 17.2724 9.29025 17.5318 9.50339 17.5939C9.61813 17.6274 10.481 17.6392 12.1023 17.6297C14.4689 17.6158 14.5326 17.6131 14.6591 17.5186C14.9055 17.3347 14.9824 17.1847 14.9824 16.8878C14.9824 16.5909 14.9055 16.4409 14.6591 16.2569C14.5324 16.1624 14.4724 16.1599 12.0553 16.1496C10.0701 16.1411 9.55289 16.1515 9.43796 16.2021ZM9.43796 19.5821C9.12695 19.7189 8.94815 20.0785 9.0147 20.4331C9.05584 20.6525 9.29025 20.9119 9.50339 20.974C9.61813 21.0074 10.481 21.0193 12.1023 21.0098C14.4689 20.9959 14.5326 20.9931 14.6591 20.8987C14.9055 20.7147 14.9824 20.5647 14.9824 20.2679C14.9824 19.971 14.9055 19.821 14.6591 19.637C14.5324 19.5424 14.4724 19.54 12.0553 19.5297C10.0701 19.5212 9.55289 19.5316 9.43796 19.5821Z"/>
  </symbol>
  <symbol viewBox="0 0 22 25" id="del">
    <path fill-rule="evenodd" clip-rule="evenodd" d="M7.62864 0.0474335C7.00357 0.169886 6.37136 0.659209 6.10529 1.2265C5.92506 1.61076 5.86163 1.93998 5.86163 2.49131V2.9241H3.95975C2.87081 2.9241 1.94536 2.94538 1.79454 2.97395C0.881821 3.14664 0.182122 3.87262 0.0267474 4.8081C-0.12021 5.693 0.349584 6.6196 1.16091 7.04496L1.49666 7.22097L1.5273 7.50157C1.54408 7.65591 1.84397 11.2316 2.19362 15.4477C2.54323 19.6637 2.84884 23.1966 2.87272 23.2985C3.05016 24.0561 3.73993 24.7398 4.50961 24.9209C4.95777 25.0264 17.0422 25.0264 17.4904 24.9209C18.2601 24.7398 18.9504 24.0556 19.1271 23.2985C19.151 23.1966 19.4566 19.6637 19.8063 15.4477C20.1561 11.2316 20.456 7.65591 20.4728 7.50157L20.5033 7.22097L20.8391 7.04496C21.6504 6.6196 22.1202 5.693 21.9733 4.8081C21.8179 3.87262 21.1182 3.14664 20.2055 2.97395C20.0546 2.94538 19.1292 2.9241 18.0402 2.9241H16.1384V2.49131C16.1384 2.25334 16.1159 1.94032 16.0884 1.7958C15.9217 0.918908 15.2119 0.210753 14.333 0.0444552C14.0102 -0.0166247 7.94189 -0.0139393 7.62864 0.0474335ZM14.28 1.55763C14.5722 1.70635 14.6703 1.93886 14.6703 2.48272V2.9241H11H7.32974V2.48272C7.32974 1.94755 7.42825 1.70821 7.70954 1.56003C7.886 1.46711 8.00277 1.4636 10.9897 1.4615C13.9995 1.4594 14.0924 1.46213 14.28 1.55763ZM20.1525 4.48712C20.3696 4.59766 20.5427 4.87894 20.5427 5.12121C20.5427 5.36348 20.3696 5.64476 20.1525 5.7553C19.961 5.85276 19.8827 5.85359 11 5.85359C2.11728 5.85359 2.03903 5.85276 1.84754 5.7553C1.63041 5.64476 1.45732 5.36348 1.45732 5.12121C1.45732 4.88641 1.63051 4.59835 1.83712 4.48952C2.0173 4.3946 2.15599 4.39314 10.9897 4.39099C19.8849 4.38884 19.9609 4.38967 20.1525 4.48712ZM18.9982 7.52584C18.9841 7.63999 18.6881 11.1682 18.3405 15.3664C17.6559 23.6333 17.711 23.1659 17.3949 23.401L17.2567 23.5038H11H4.74328L4.60508 23.401C4.28905 23.1659 4.34405 23.6333 3.65948 15.3664C3.31188 11.1682 3.01591 7.63999 3.00181 7.52584L2.97622 7.31833H11H19.0238L18.9982 7.52584ZM6.23928 8.88488C6.11743 8.94903 6.0197 9.05313 5.95329 9.18954L5.85238 9.39675L6.22426 15.425C6.64007 22.1644 6.59373 21.7655 6.98375 21.964C7.23103 22.0899 7.42844 22.0899 7.67572 21.964C7.81035 21.8955 7.90249 21.8 7.97238 21.6565L8.07372 21.4484L7.70136 15.4209C7.28516 8.68259 7.3314 9.08086 6.94167 8.88248C6.69787 8.75837 6.47809 8.75915 6.23928 8.88488ZM10.6457 8.88375C10.5339 8.94268 10.4245 9.05498 10.3644 9.1726C10.2673 9.36238 10.2659 9.45036 10.2659 15.4233C10.2659 21.3986 10.2673 21.4841 10.3645 21.6741C10.4753 21.8907 10.7572 22.0634 11 22.0634C11.2428 22.0634 11.5247 21.8907 11.6355 21.6741C11.7327 21.4841 11.7341 21.3986 11.7341 15.4233C11.7341 9.44792 11.7327 9.36243 11.6355 9.1724C11.455 8.81925 11.0129 8.69036 10.6457 8.88375ZM15.0479 8.88488C14.6701 9.08384 14.7134 8.70559 14.2986 15.4209L13.9263 21.4484L14.0276 21.6565C14.0975 21.8 14.1897 21.8955 14.3243 21.964C14.5716 22.0899 14.769 22.0899 15.0162 21.964C15.4063 21.7655 15.3599 22.1644 15.7757 15.425L16.1476 9.39675L16.0466 9.18935C15.8668 8.81994 15.4262 8.68567 15.0479 8.88488Z"/>
  </symbol>
  <symbol viewBox="0 0 11 7" id="arrow">
    <path d="M0.109914 1.46079L5.24661 6.59714C5.32 6.67061 5.40443 6.7074 5.49994 6.7074C5.59546 6.7074 5.68004 6.67061 5.75347 6.59714L10.8897 1.46079C10.9633 1.38721 11 1.30277 11 1.20722C11 1.11171 10.9632 1.02716 10.8897 0.953736L10.3388 0.402789C10.2653 0.329321 10.1807 0.292606 10.0852 0.292606C9.98972 0.292606 9.90517 0.329321 9.8317 0.402789L5.49994 4.73447L1.16803 0.402519C1.0946 0.329051 1.01002 0.292569 0.914659 0.292569C0.818993 0.292569 0.734445 0.329283 0.661017 0.402519L0.109953 0.953699C0.0365252 1.02713 4.14725e-05 1.11171 4.14808e-05 1.20719C2.38854e-06 1.30277 0.0364862 1.38732 0.109914 1.46079Z" fill="#7B7B7B"/>
  </symbol>
</svg>