<svg fill="none" xmlns="http://www.w3.org/2000/svg">
  <symbol viewBox="0 0 18 17" id="mail">
    <path fill-rule="evenodd" clip-rule="evenodd" d="M1.36108 0.0647973C0.727481 0.237234 0.230514 0.747413 0.0633716 1.39694C-0.022055 1.72884 -0.0206681 11.641 0.0648335 11.9733C0.23325 12.6277 0.732841 13.1317 1.38286 13.3031C1.54726 13.3464 1.8324 13.3597 2.60057 13.3597H3.60361L3.61414 14.9884C3.62434 16.5655 3.62711 16.6203 3.70197 16.7218C3.88845 16.9745 4.19005 17.0678 4.43464 16.9486C4.50458 16.9145 5.54012 16.0938 6.73587 15.1248L8.90996 13.363L12.6599 13.3613C16.7366 13.3595 16.6063 13.3659 17.0333 13.1469C17.2976 13.0114 17.6294 12.6819 17.7694 12.4161C18.0121 11.9552 17.9999 12.2584 17.9999 6.68224C17.9999 2.25386 17.9927 1.58607 17.9425 1.39122C17.7741 0.736827 17.2745 0.232795 16.6245 0.0614206C16.3057 -0.0226164 1.67032 -0.0193915 1.36108 0.0647973ZM16.5236 1.31609C16.5805 1.35912 16.6619 1.44145 16.7044 1.49908C16.7815 1.60368 16.7817 1.61233 16.7817 6.67849V11.7531L16.6736 11.8965C16.4748 12.1603 16.7241 12.1456 12.4559 12.1456C10.073 12.1456 8.5599 12.1596 8.50131 12.1821C8.44909 12.2022 7.60483 12.868 6.62518 13.6618C5.64549 14.4555 4.83591 15.1049 4.82612 15.1049C4.8163 15.1049 4.80341 14.5256 4.79749 13.8177C4.78714 12.5858 4.78335 12.5259 4.7094 12.4257C4.66689 12.3681 4.58559 12.2858 4.52869 12.2428C4.42962 12.1679 4.36552 12.1638 3.00619 12.1456C1.64686 12.1274 1.58276 12.1233 1.48369 12.0484C1.42679 12.0054 1.34548 11.923 1.30298 11.8654C1.22595 11.761 1.22565 11.7427 1.21493 6.78381C1.209 4.04656 1.21388 1.75199 1.2258 1.68476C1.25271 1.53269 1.41026 1.33886 1.56117 1.27212C1.65533 1.23046 2.97583 1.22299 9.04779 1.22971L16.42 1.23786L16.5236 1.31609ZM3.96016 4.91428C3.71217 5.02408 3.5692 5.31504 3.62235 5.60175C3.65523 5.77916 3.84242 5.98878 4.01238 6.03852C4.10658 6.0661 5.694 6.07517 9.08527 6.06746C14.0033 6.05627 14.0215 6.05597 14.1246 5.978C14.3213 5.82935 14.3827 5.7081 14.3827 5.46816C14.3827 5.22823 14.3213 5.10698 14.1246 4.95833C14.0214 4.88032 14.006 4.88006 9.04779 4.87186C4.9704 4.86515 4.05391 4.87277 3.96016 4.91428ZM3.96016 7.34225C3.71202 7.45254 3.5692 7.74323 3.62235 8.02991C3.65523 8.2072 3.84231 8.41686 4.01238 8.46686C4.10496 8.4941 4.9731 8.50351 6.68628 8.49581C9.18108 8.48458 9.22483 8.4831 9.3266 8.40616C9.52332 8.25751 9.58468 8.13625 9.58468 7.89632C9.58468 7.65639 9.52332 7.53513 9.3266 7.38648C9.22472 7.30943 9.18382 7.30814 6.6488 7.29983C4.56587 7.29304 4.05267 7.30112 3.96016 7.34225Z"/>
  </symbol>
  <symbol viewBox="0 0 18 18" id="cursor">
    <path d="M15.7054 11.2946L13.5178 9.10198L15.583 7.72521C16.7201 6.97054 17.7042 6.28725 17.7705 6.20567C18.0255 5.90482 17.9949 5.43569 17.6992 5.15014C17.5156 4.97167 17.3065 4.90538 9.22436 2.48329C4.67082 1.11671 0.871955 0 0.790368 0C0.708782 0 0.571105 0.0305949 0.484419 0.0713881C0.198867 0.193768 0 0.504816 0 0.805666C0 0.882153 1.12181 4.68102 2.49348 9.25496C4.94108 17.4034 4.99207 17.5666 5.16544 17.7297C5.45609 18 5.91501 18.0204 6.20567 17.7756C6.28215 17.7094 6.96544 16.7252 7.72521 15.5881L9.10198 13.5229L11.2946 15.7105C13.6708 18.0765 13.5943 18.0153 14.0635 17.9337C14.2317 17.9031 14.4867 17.6686 16.0725 16.0776C17.6584 14.4918 17.898 14.2317 17.9286 14.0686C18.0102 13.5892 18.0714 13.6657 15.7054 11.2946ZM14.9252 14.9252L13.8697 15.9807L11.6108 13.7269C9.63229 11.7535 9.33144 11.468 9.16317 11.4374C8.90821 11.3915 8.65836 11.4425 8.49008 11.5751C8.4136 11.6363 7.8272 12.4725 7.1796 13.4414C6.53711 14.4102 6.0017 15.1904 5.9915 15.1802C5.9813 15.17 5.09915 12.2482 4.03343 8.68895C2.96261 5.12975 2.07535 2.17224 2.06006 2.12125C2.03456 2.04476 2.04986 2.03456 2.12635 2.05496C2.17734 2.07026 5.13484 2.95751 8.69405 4.02833C12.2533 5.09915 15.1802 5.9813 15.1853 5.9864C15.1955 5.9966 14.4102 6.53201 13.4465 7.1745C12.4776 7.817 11.6414 8.4085 11.5802 8.48499C11.4476 8.65326 11.3966 8.90822 11.4425 9.15807C11.4731 9.32635 11.7535 9.6272 13.732 11.6057L15.9858 13.8646L14.9252 14.9252Z"/>
  </symbol>
  <symbol viewBox="0 0 20 20" id="line">
    <path fill-rule="evenodd" clip-rule="evenodd" d="M18.9517 0.0274683C18.8439 0.0592817 16.8368 2.04638 9.49701 9.38827C4.37219 14.5145 0.14038 18.7703 0.0929885 18.8456C-0.0382377 19.0541 -0.0292833 19.4425 0.111679 19.6556C0.273209 19.8999 0.46434 20 0.769257 20C0.963828 20 1.05548 19.9798 1.16028 19.9137C1.23555 19.8663 5.48808 15.6314 10.6104 10.5028C19.2354 1.86713 19.927 1.16508 19.9695 1.00237C20.1012 0.499073 19.7931 0.0406163 19.2981 0.00301154C19.1828 -0.00575376 19.0269 0.00528113 18.9517 0.0274683Z"/>
  </symbol>
  <symbol viewBox="0 0 20 20" id="circleline">
    <path d="M19 1C18.9762 1 18.9642 1 18.9404 1C9.03444 1 1 9.03444 1 18.9404C1 18.9642 1 18.9762 1 19" stroke="white" stroke-width="1.5" stroke-miterlimit="10" stroke-linecap="round" stroke-linejoin="round"/>
  </symbol>
  <symbol viewBox="0 0 22 22" id="pencil">
    <path fill-rule="evenodd" clip-rule="evenodd" d="M20.2784 1.53045C19.6089 0.86088 18.8436 0.573924 17.8871 0.478271C17.6002 0.478271 17.3132 0.478271 17.1219 0.478271C16.548 0.573924 15.9741 0.86088 15.5915 1.24349C15.4958 1.33914 12.4349 4.40001 8.80015 8.03479L2.20015 14.6348L1.24363 17.6C0.669718 19.2261 0.287109 20.6609 0.287109 20.6609C0.287109 21.1391 0.669718 21.5218 1.14798 21.5218C1.24363 21.5218 2.58276 21.0435 4.20885 20.5652L7.17407 19.6087L13.7741 13.0087C17.4088 9.37392 20.4697 6.31305 20.5654 6.12175C21.6175 4.68697 21.5219 2.67827 20.2784 1.53045ZM12.2436 12.1478L6.40885 17.9826L2.39146 19.4174C2.39146 19.4174 3.73059 15.5913 3.82624 15.4L9.56537 9.66088C12.6262 6.60001 15.0175 4.20871 15.1132 4.20871C15.1132 4.20871 15.6871 4.78262 16.4523 5.54784L17.7915 6.88697L12.2436 12.1478ZM19.1306 5.26088L18.9393 5.45218L17.6002 4.11305L16.261 2.86958L16.548 2.67827C17.0262 2.20001 17.6002 2.10436 18.1741 2.20001C18.6523 2.29566 19.1306 2.67827 19.4175 3.15653C19.8002 3.8261 19.7045 4.68697 19.1306 5.26088Z"/>
  </symbol>
  <symbol viewBox="0 0 25 16" id="rectangle">
    <path d="M24.0517 1.03531H0.948242V15.153H24.0517V1.03531Z" stroke="white" stroke-width="1.5" stroke-miterlimit="10"/>
  </symbol>
  <symbol viewBox="0 0 22 22" id="circle">
    <path d="M10.9999 21.208C16.589 21.208 21.1199 16.6771 21.1199 11.088C21.1199 5.49887 16.589 0.967987 10.9999 0.967987C5.41076 0.967987 0.879883 5.49887 0.879883 11.088C0.879883 16.6771 5.41076 21.208 10.9999 21.208Z" stroke="white" stroke-width="1.5" stroke-miterlimit="10"/>
  </symbol>
  <symbol viewBox="0 0 24 24" id="pointer">
    <path fill-rule="evenodd" clip-rule="evenodd" d="M10.3506 1.62759C9.4565 2.52279 8.72501 3.27657 8.72501 3.30266C8.72501 3.3633 9.6238 4.26155 9.68444 4.26155C9.70942 4.26155 10.0828 3.90878 10.514 3.47766L11.2982 2.69377V6.98993V11.2861H7.00615H2.71408L3.49723 10.5012C3.92793 10.0695 4.28037 9.69504 4.28037 9.66909C4.28037 9.60817 3.3812 8.71043 3.32019 8.71043C3.29478 8.71043 2.53732 9.44801 1.63698 10.3495L0 11.9885L1.63698 13.6276C2.53732 14.5291 3.29553 15.2667 3.32187 15.2667C3.38279 15.2667 4.28037 14.3673 4.28037 14.3063C4.28037 14.2813 3.92793 13.9076 3.49723 13.4759L2.71408 12.691H7.00615H11.2982V16.9872V21.2833L10.514 20.4994C10.0828 20.0683 9.70867 19.7155 9.68275 19.7155C9.62189 19.7155 8.72501 20.6156 8.72501 20.6766C8.72501 20.7021 9.46188 21.4603 10.3625 22.3615L12 24L13.6375 22.3615C14.5381 21.4603 15.275 20.7013 15.275 20.675C15.275 20.614 14.3765 19.7155 14.3156 19.7155C14.2906 19.7155 13.9172 20.0683 13.486 20.4994L12.7018 21.2833V16.9872V12.691H16.9939H21.2859L20.5028 13.4759C20.0721 13.9076 19.7196 14.2821 19.7196 14.308C19.7196 14.3689 20.6188 15.2667 20.6798 15.2667C20.7052 15.2667 21.4627 14.5291 22.363 13.6276L24 11.9885L22.363 10.3495C21.4627 9.44801 20.7045 8.71043 20.6781 8.71043C20.6172 8.71043 19.7196 9.60976 19.7196 9.67078C19.7196 9.69579 20.0721 10.0695 20.5028 10.5012L21.2859 11.2861H16.9939H12.7018V6.98993V2.69377L13.486 3.47766C13.9172 3.90878 14.2913 4.26155 14.3172 4.26155C14.3781 4.26155 15.275 3.36152 15.275 3.30046C15.275 3.2548 12.0448 0 11.9995 0C11.9866 0 11.2446 0.732426 10.3506 1.62759Z"/>
  </symbol>
  <symbol viewBox="0 0 20 23" id="back">
    <path fill-rule="evenodd" clip-rule="evenodd" d="M4.59367 0.0565126C4.37304 0.160901 4.15757 0.410526 4.08548 0.645263C3.98508 0.972155 2.65234 6.03213 2.62512 6.18987C2.58715 6.40978 2.69819 6.69111 2.9028 6.89314C3.03672 7.02537 3.18938 7.09921 3.4858 7.17503C3.87963 7.27582 7.43186 8.24372 8.17828 8.4536C8.38685 8.51222 8.668 8.56009 8.80306 8.55998C9.22563 8.55965 9.56078 8.25755 9.64478 7.80142C9.6903 7.55418 9.49678 7.13933 9.26219 6.98126C9.17021 6.91927 8.2934 6.65121 7.30636 6.38332C6.32236 6.11626 5.48064 5.88495 5.43593 5.8694C5.24067 5.80138 6.5752 5.09423 7.44593 4.80437C8.29916 4.52032 8.65844 4.46026 9.70057 4.42728C10.5357 4.40087 10.7744 4.41305 11.3353 4.51069C14.4105 5.04603 16.9343 7.25712 17.8705 10.236C18.1479 11.1187 18.2264 11.678 18.2258 12.7667C18.2254 13.5391 18.2012 13.8588 18.1064 14.3444C17.4214 17.8536 14.96 20.3862 11.5601 21.08C10.7663 21.242 9.32266 21.2546 8.5325 21.1062C5.51791 20.5404 3.06442 18.3406 2.1328 15.3682C1.88919 14.5911 1.78927 13.9939 1.7563 13.1177C1.72288 12.2311 1.7927 11.5192 1.99132 10.7201C2.14937 10.0842 2.15138 9.99873 2.0143 9.72497C1.85126 9.39941 1.61254 9.25207 1.24821 9.25207C0.997976 9.25207 0.909421 9.27985 0.739915 9.41159C0.502118 9.5964 0.422092 9.76831 0.269645 10.4223C-0.416201 13.3642 0.220804 16.472 2.01506 18.9382C3.32265 20.7354 5.2285 22.061 7.33727 22.6401C12.7731 24.1328 18.3271 20.8446 19.6973 15.3223C20.3716 12.6051 19.906 9.6528 18.4345 7.31485C16.8993 4.87555 14.2725 3.16537 11.3784 2.72091C10.7584 2.62571 9.41763 2.61221 8.74841 2.6944C7.71589 2.82121 6.49572 3.20616 5.46907 3.72905C5.20351 3.86432 4.99858 3.94186 5.01374 3.9014C5.14853 3.54091 5.76174 1.03996 5.76174 0.850663C5.76174 0.582496 5.61815 0.316433 5.37405 0.132286C5.19063 -0.00608739 4.80506 -0.0435588 4.59367 0.0565126Z"/>
  </symbol>
  <symbol viewBox="0 0 24 24" id="pouring">
    <path fill-rule="evenodd" clip-rule="evenodd" d="M18.2856 2.18667L16.1046 4.37333L14.764 3.06048L13.4234 1.74762L7.59928 7.58721L1.77516 13.4268L6.80577 18.463C10.0322 21.693 11.9139 23.5433 12.0526 23.622C12.4902 23.8707 12.9669 23.9967 13.478 23.9987C14.0179 24.0008 14.3377 23.9226 14.8382 23.666C15.1397 23.5114 15.5001 23.164 19.2376 19.4259C21.8638 16.7993 23.3831 15.2455 23.5185 15.0476C24.0297 14.3007 24.1449 13.2794 23.811 12.4555C23.5876 11.9043 23.4088 11.7064 20.4192 8.70001L17.4496 5.71379L19.6249 3.50352L21.8002 1.29324L21.1576 0.646622C20.8041 0.291004 20.504 0 20.4907 0C20.4774 0 19.4851 0.983995 18.2856 2.18667ZM14.1234 5.06754L14.7675 5.71459L12.3521 8.13592C11.0237 9.46763 9.93682 10.5782 9.93682 10.6038C9.93682 10.6655 11.1647 11.8979 11.2262 11.8979C11.2524 11.8979 12.3608 10.808 13.6891 9.47596L16.1043 7.05402L19.029 9.9815C21.0101 11.9645 21.9821 12.9696 22.0417 13.097C22.1491 13.3266 22.1556 13.5831 22.0598 13.8157C22.0092 13.9387 20.8021 15.1802 17.9909 18.0007C14.2537 21.7503 13.9789 22.0154 13.7616 22.0807C13.5127 22.1554 13.2912 22.1366 13.0559 22.021C12.9026 21.9457 4.44909 13.5046 4.44909 13.4269C4.44909 13.3646 13.3696 4.42055 13.4317 4.42055C13.4579 4.42055 13.7691 4.71169 14.1234 5.06754ZM2.18543 17.2237C0.873627 18.857 0.181236 20.0455 0.0315193 20.9208C-0.179125 22.1525 0.688499 23.4895 1.9625 23.8963C2.36699 24.0255 3.08851 24.0355 3.48555 23.9175C4.49876 23.6163 5.25138 22.8122 5.46615 21.8015C5.65864 20.8955 5.33749 19.9953 4.28029 18.4772C3.82903 17.8293 2.82224 16.5535 2.76216 16.5535C2.74096 16.5535 2.48144 16.8551 2.18543 17.2237ZM3.07036 20.0453C3.39095 20.5645 3.59943 20.9984 3.6355 21.2213C3.67091 21.4399 3.52087 21.7726 3.31726 21.9271C2.84339 22.2867 2.18707 22.1273 1.95255 21.5957C1.842 21.3451 1.8587 21.1792 2.03294 20.7976C2.18688 20.4605 2.70887 19.6103 2.76197 19.6103C2.78387 19.6103 2.92266 19.8061 3.07036 20.0453Z"/>
  </symbol>
  <symbol viewBox="0 0 23 22" id="settings">
    <path fill-rule="evenodd" clip-rule="evenodd" d="M15.5023 21.9285C14.8086 21.7523 14.1127 21.2958 13.6717 20.7278C13.4789 20.4794 13.116 19.7984 13.116 19.6848C13.116 19.6445 11.6483 19.6319 6.94887 19.6315L0.781712 19.631L0.557043 19.5255C0.292833 19.4014 0.211997 19.3188 0.0886992 19.0469C-0.0753988 18.6851 0.00179734 18.2867 0.292249 17.9965C0.58652 17.7025 0.109369 17.7231 6.9206 17.7099L13.1044 17.6979L13.1827 17.4852C13.5633 16.4505 14.5464 15.6122 15.6417 15.3883C17.1783 15.0741 18.7834 15.9438 19.3722 17.4097L19.4795 17.6769L20.8698 17.6997C22.3729 17.7244 22.4324 17.7337 22.7002 17.9854C22.8666 18.1417 22.9993 18.443 23 18.6657C23.0006 18.8641 22.8376 19.2522 22.7037 19.3711C22.6565 19.4129 22.5273 19.4884 22.4165 19.5386C22.2284 19.6239 22.1253 19.6301 20.8549 19.631L19.4947 19.6319L19.4454 19.7555C19.2912 20.142 19.0545 20.5591 18.8457 20.8122C18.4477 21.2948 17.8237 21.7079 17.1981 21.903C16.8215 22.0204 15.9174 22.034 15.5023 21.9285ZM16.8701 19.9707C17.4751 19.7021 17.8094 19.0705 17.6909 18.4199C17.6328 18.1007 17.5252 17.8955 17.296 17.6662C16.9932 17.3633 16.7588 17.2723 16.2838 17.2732C15.9485 17.2739 15.8449 17.292 15.6772 17.3791C15.4018 17.5223 15.1539 17.7671 15.0115 18.0365C14.9087 18.2308 14.8925 18.3159 14.8918 18.6657C14.8908 19.1406 14.9817 19.3751 15.2842 19.6777C15.513 19.9065 15.6732 19.9937 15.9918 20.0627C16.3004 20.1296 16.5776 20.1006 16.8701 19.9707ZM6.28609 14.3309C5.18661 14.1744 4.22247 13.4816 3.75116 12.5092C3.64318 12.2864 3.54316 12.0687 3.52891 12.0254C3.50501 11.9528 3.39685 11.9467 2.11988 11.9458C0.567603 11.9447 0.51157 11.935 0.233341 11.618C-0.0777803 11.2636 -0.0777803 10.7424 0.233341 10.388C0.51157 10.071 0.567603 10.0613 2.11988 10.0602C3.39685 10.0593 3.50501 10.0532 3.52891 9.98055C3.54316 9.93732 3.64318 9.71957 3.75116 9.49675C4.165 8.64293 4.96634 7.99747 5.92923 7.74233C6.27904 7.64961 7.004 7.6382 7.38697 7.71936C8.44403 7.9434 9.34976 8.7125 9.79416 9.76343L9.90973 10.0367L16.1298 10.0592C23.0603 10.0842 22.4708 10.0546 22.7676 10.3928C23.0727 10.7403 23.0727 11.2657 22.7676 11.6132C22.4708 11.9514 23.0603 11.9218 16.1298 11.9468L9.90973 11.9693L9.79416 12.2426C9.43626 13.0888 8.81856 13.7238 7.9991 14.0875C7.52294 14.2989 6.79155 14.4028 6.28609 14.3309ZM7.07917 12.3785C7.35336 12.3054 7.67549 12.0942 7.83828 11.8808C8.22045 11.3797 8.21932 10.6249 7.83568 10.1218C7.67104 9.9059 7.29984 9.67485 7.01132 9.6087C5.85046 9.34259 4.89023 10.5898 5.43694 11.6536C5.75143 12.2655 6.41074 12.5565 7.07917 12.3785ZM15.6098 6.61432C14.539 6.38664 13.5578 5.54028 13.1827 4.52081L13.1044 4.30809L6.9206 4.29609C0.109369 4.28288 0.58652 4.30351 0.292249 4.0095C0.00179734 3.7193 -0.0753988 3.32093 0.0886992 2.9591C0.211997 2.6872 0.292833 2.6046 0.557043 2.48046L0.781712 2.37494L6.94887 2.37449C11.6483 2.37413 13.116 2.36146 13.116 2.32114C13.116 2.20762 13.4789 1.52656 13.6717 1.27821C14.1308 0.686768 14.8813 0.212669 15.6052 0.0566292C16.0323 -0.0354576 16.8235 -0.012043 17.1981 0.103683C17.8206 0.296038 18.4473 0.71063 18.8457 1.19381C19.0545 1.44692 19.2912 1.86403 19.4454 2.25045L19.4947 2.37404L20.8549 2.37449C22.1882 2.3749 22.2195 2.37701 22.4398 2.48046C22.704 2.6046 22.7848 2.6872 22.9081 2.9591C23.1242 3.43563 22.9089 3.98482 22.4173 4.21111C22.2873 4.27088 22.0183 4.28742 20.8698 4.30625L19.4795 4.32904L19.3722 4.59631C18.7806 6.06912 17.1526 6.94231 15.6098 6.61432ZM16.8992 4.62889C17.1476 4.50737 17.4483 4.21956 17.564 3.99287C17.7576 3.61333 17.7591 3.07029 17.5677 2.69497C17.2094 1.99261 16.3291 1.7039 15.6314 2.05989C15.4053 2.1753 15.1173 2.47602 14.9948 2.72482C14.8447 3.02975 14.8461 3.65549 14.9975 3.94703C15.1859 4.30953 15.5171 4.59114 15.9019 4.71617C16.1215 4.7875 16.6739 4.73914 16.8992 4.62889Z"/>
  </symbol>
  <symbol viewBox="0 0 20 20" id="close">
    <path fill-rule="evenodd" clip-rule="evenodd" d="M0.628552 0.0611157C0.283837 0.182908 0 0.593859 0 0.971157C0 1.04949 0.0285244 1.20024 0.0633788 1.3062C0.121522 1.48291 0.477451 1.85005 4.37103 5.74951L8.61526 10.0002L4.38967 14.2312C2.06555 16.5583 0.134455 18.5213 0.0982723 18.5936C-0.0785397 18.947 0.00394653 19.4258 0.291144 19.7131C0.563727 19.9857 0.930441 20.0682 1.31181 19.9427C1.48846 19.8845 1.85549 19.5285 5.75372 15.6339L10.0031 11.3884L14.2524 15.6339C18.1506 19.5285 18.5177 19.8845 18.6943 19.9427C19.0752 20.0681 19.4424 19.9857 19.7141 19.7139C19.9857 19.4422 20.0681 19.0748 19.9428 18.6939C19.8846 18.5172 19.5287 18.15 15.6352 14.2506L11.391 10L15.6352 5.74943C19.5287 1.85005 19.8846 1.48291 19.9428 1.3062C20.0681 0.92523 19.9857 0.557861 19.7141 0.286134C19.4424 0.0144078 19.0752 -0.0679856 18.6943 0.0574025C18.5177 0.115563 18.1506 0.471598 14.2524 4.36621L10.0031 8.61166L5.75372 4.36621C1.85549 0.471598 1.48846 0.115563 1.31181 0.0574025C1.07568 -0.0203397 0.855731 -0.019128 0.628552 0.0611157Z"/>
  </symbol>
</svg>